<svg version="1.1" id="Layer_1" xmlns="http://www.w3.org/2000/svg" xmlns:xlink="http://www.w3.org/1999/xlink" x="0px" y="0px"
	 width="100%" viewBox="0 0 301 167" enable-background="new 0 0 301 167" xml:space="preserve">
<path fill="#FEFEFF" opacity="1.000000" stroke="none" 
	d="
M206.000000,168.000000 
	C137.333344,168.000000 69.166679,168.000000 1.000018,168.000000 
	C1.000012,112.333351 1.000012,56.666695 1.000006,1.000033 
	C101.333305,1.000022 201.666611,1.000022 301.999939,1.000011 
	C301.999939,56.666630 301.999939,112.333260 301.999969,167.999939 
	C270.166656,168.000000 238.333328,168.000000 206.000000,168.000000 
M33.541935,101.509933 
	C33.541935,87.946182 33.541935,74.382439 33.541935,60.988018 
	C29.937300,60.988018 27.180534,60.988018 24.565002,60.988018 
	C24.565002,78.756088 24.565002,96.164703 24.565002,113.725540 
	C42.194851,113.725540 59.474560,113.725540 77.021988,113.725540 
	C77.021988,110.691917 77.021988,107.776688 77.021988,104.415428 
	C75.156288,104.415428 73.534126,104.415443 71.911964,104.415421 
	C60.587875,104.415253 49.262867,104.483299 37.940826,104.331017 
	C36.478333,104.311356 35.031174,103.151367 33.541935,101.509933 
M240.211334,77.888054 
	C240.211334,84.815796 240.211334,91.743546 240.211334,99.316505 
	C245.036179,99.045212 249.377579,99.266945 253.513443,98.449173 
	C258.542755,97.454750 261.465637,93.859116 262.077057,88.688431 
	C262.727142,83.190933 260.358643,78.289223 255.381744,76.597778 
	C250.461426,74.925568 245.186005,73.334167 240.211334,77.888054 
M268.001678,97.284256 
	C268.763123,97.892921 269.509033,99.004601 270.288574,99.028725 
	C275.402222,99.186928 280.523132,99.110252 286.027985,99.110252 
	C285.942627,97.376671 285.876556,96.034317 285.794189,94.361580 
	C282.758667,94.361580 280.119019,94.275391 277.487366,94.383560 
	C274.249237,94.516655 271.684784,94.219154 273.618439,89.460281 
	C276.627136,89.460281 279.716309,89.460281 282.908447,89.460281 
	C282.908447,87.754395 282.908447,86.510345 282.908447,84.845924 
	C279.581116,84.845924 276.492035,84.845924 273.246460,84.845924 
	C273.246460,83.055374 273.246460,81.690269 273.246460,79.910156 
	C277.640289,79.910156 281.729004,79.910156 286.171814,79.910156 
	C285.999695,78.087791 285.870453,76.719170 285.758911,75.538261 
	C279.605530,75.538261 273.890015,75.538261 267.989807,75.538261 
	C267.989807,82.718925 267.989807,89.518906 268.001678,97.284256 
M131.114716,75.390862 
	C127.422752,83.101990 123.730804,90.813118 120.038849,98.524246 
	C120.487907,98.988037 120.936958,99.451820 121.386017,99.915611 
	C123.084656,98.691299 125.098373,97.734100 126.412582,96.183884 
	C128.737610,93.441307 137.331741,93.647766 139.657074,96.442688 
	C140.876099,97.907883 142.968460,98.646484 144.666412,99.713219 
	C144.984680,99.259521 145.302948,98.805824 145.621201,98.352135 
	C142.462967,91.402122 139.430786,84.389267 136.027267,77.561523 
	C135.432663,76.368729 133.275543,75.954819 131.114716,75.390862 
M226.617599,94.029282 
	C220.173798,96.183464 217.883972,94.682304 217.717560,88.110550 
	C217.641785,85.118179 217.734711,82.121910 217.692825,79.128227 
	C217.635712,75.045036 217.611832,75.045372 212.966415,75.780449 
	C212.966415,80.869240 212.698059,86.019722 213.040131,91.129341 
	C213.398849,96.487923 217.338715,99.804657 222.704056,99.946503 
	C228.068954,100.088326 232.374619,96.973328 232.849045,91.698616 
	C233.333969,86.307205 232.956421,80.838211 232.956421,75.578293 
	C228.998917,74.285202 228.320129,75.935402 228.264450,79.129852 
	C228.181702,83.876686 227.555527,88.614052 226.617599,94.029282 
M154.581085,75.166138 
	C152.137024,75.166138 149.692978,75.166138 146.837799,75.166138 
	C147.063705,77.155083 147.218552,78.518471 147.363907,79.798103 
	C149.950455,79.958199 152.051559,80.088242 154.580643,80.244781 
	C154.580643,86.639069 154.580643,92.700867 154.580643,98.900589 
	C156.308670,98.900589 157.579666,98.900589 159.218994,98.900589 
	C159.218994,92.625565 159.218994,86.545601 159.218994,80.306847 
	C161.985046,80.067383 164.400101,79.858315 166.641296,79.664291 
	C167.780350,75.920143 166.304581,74.855148 163.009171,75.126137 
	C160.536911,75.329430 158.034531,75.166214 154.581085,75.166138 
M103.273079,78.981247 
	C103.725189,75.532204 102.303047,74.391403 98.807236,75.600571 
	C98.807236,83.272835 98.807236,91.011642 98.807236,98.819992 
	C104.628784,98.819992 110.204796,98.819992 115.991570,98.819992 
	C115.872704,97.264694 115.777100,96.013626 115.643150,94.260910 
	C111.474312,94.260910 107.557556,94.260910 103.272743,94.260910 
	C103.272743,89.118515 103.272743,84.498337 103.273079,78.981247 
M203.064270,75.142204 
	C197.461563,75.142204 191.858856,75.142204 186.105942,75.142204 
	C186.105942,77.005112 186.105942,78.411133 186.105942,80.121613 
	C188.519867,80.121613 190.634766,80.121613 193.225586,80.121613 
	C193.225586,86.488487 193.225586,92.564713 193.225586,98.826752 
	C195.087784,98.826752 196.453506,98.826752 198.296722,98.826752 
	C198.296722,92.461670 198.296722,86.381851 198.296722,80.237183 
	C201.025223,80.048355 203.285065,79.891960 206.929062,79.639771 
	C205.604782,77.639961 204.783310,76.399452 203.064270,75.142204 
M173.964523,94.348877 
	C174.033417,95.800713 174.102310,97.252548 174.176392,98.813370 
	C175.824417,98.813370 177.196747,98.813370 178.593689,98.813370 
	C178.593689,90.810577 178.593689,83.117897 178.593689,75.056343 
	C176.854385,75.249527 175.484467,75.401680 173.964508,75.570503 
	C173.964508,81.803925 173.964508,87.591843 173.964523,94.348877 
M59.828217,69.538551 
	C60.708069,67.780579 62.131687,66.061089 62.259834,64.249931 
	C62.334370,63.196491 60.046173,60.886261 59.317265,61.073456 
	C57.273125,61.598419 54.269665,62.786167 53.838882,64.326233 
	C52.774548,68.131218 55.112408,70.112099 59.828217,69.538551 
M76.161972,82.800392 
	C78.087761,79.636223 77.560295,76.752655 74.021988,75.784248 
	C72.477722,75.361595 69.850006,76.870209 68.582062,78.281433 
	C67.901215,79.039200 68.583549,82.475822 69.487442,82.893646 
	C71.242760,83.705063 73.588364,83.239540 76.161972,82.800392 
M68.940742,62.704552 
	C67.160545,65.517044 67.851486,68.067245 70.661972,69.259521 
	C72.072884,69.858055 75.040260,69.348541 75.799904,68.275505 
	C76.757408,66.922974 76.929214,64.055786 76.102684,62.602772 
	C74.494858,59.776249 71.800667,60.136944 68.940742,62.704552 
M47.981812,64.734505 
	C47.294613,61.594547 45.199127,59.972038 42.259727,61.019016 
	C40.814308,61.533852 39.114563,63.750183 39.104374,65.207542 
	C39.093945,66.699791 40.708649,69.010628 42.140060,69.542763 
	C45.425220,70.764046 47.366882,68.761391 47.981812,64.734505 
M68.310448,96.029671 
	C70.026398,99.282089 72.783279,100.346710 75.444504,97.878838 
	C76.606812,96.800972 76.644859,93.725739 76.087044,91.894608 
	C75.788414,90.914299 72.533432,89.712692 71.682846,90.263557 
	C70.073013,91.306114 69.234879,93.540253 68.310448,96.029671 
z"/>
<path fill="#0F4FAE" opacity="1.000000" stroke="none" 
	d="
M33.559425,102.014771 
	C35.031174,103.151367 36.478333,104.311356 37.940826,104.331017 
	C49.262867,104.483299 60.587875,104.415253 71.911964,104.415421 
	C73.534126,104.415443 75.156288,104.415428 77.021988,104.415428 
	C77.021988,107.776688 77.021988,110.691917 77.021988,113.725540 
	C59.474560,113.725540 42.194851,113.725540 24.565002,113.725540 
	C24.565002,96.164703 24.565002,78.756088 24.565002,60.988018 
	C27.180534,60.988018 29.937300,60.988018 33.541935,60.988018 
	C33.541935,74.382439 33.541935,87.946182 33.559425,102.014771 
z"/>
<path fill="#1351AE" opacity="1.000000" stroke="none" 
	d="
M240.224091,77.429886 
	C245.186005,73.334167 250.461426,74.925568 255.381744,76.597778 
	C260.358643,78.289223 262.727142,83.190933 262.077057,88.688431 
	C261.465637,93.859116 258.542755,97.454750 253.513443,98.449173 
	C249.377579,99.266945 245.036179,99.045212 240.211334,99.316505 
	C240.211334,91.743546 240.211334,84.815796 240.224091,77.429886 
M245.065353,85.607010 
	C245.065353,88.406502 245.065353,91.205994 245.065353,94.132919 
	C249.562500,94.475845 253.965988,95.061584 256.188660,90.894608 
	C257.255829,88.893906 257.468506,84.619957 256.223022,83.575226 
	C253.491089,81.283661 249.583160,80.394081 245.365784,78.595245 
	C245.210358,81.731018 245.137863,83.193550 245.065353,85.607010 
z"/>
<path fill="#1150AE" opacity="1.000000" stroke="none" 
	d="
M267.995728,96.801575 
	C267.989807,89.518906 267.989807,82.718925 267.989807,75.538261 
	C273.890015,75.538261 279.605530,75.538261 285.758911,75.538261 
	C285.870453,76.719170 285.999695,78.087791 286.171814,79.910156 
	C281.729004,79.910156 277.640289,79.910156 273.246460,79.910156 
	C273.246460,81.690269 273.246460,83.055374 273.246460,84.845924 
	C276.492035,84.845924 279.581116,84.845924 282.908447,84.845924 
	C282.908447,86.510345 282.908447,87.754395 282.908447,89.460281 
	C279.716309,89.460281 276.627136,89.460281 273.618439,89.460281 
	C271.684784,94.219154 274.249237,94.516655 277.487366,94.383560 
	C280.119019,94.275391 282.758667,94.361580 285.794189,94.361580 
	C285.876556,96.034317 285.942627,97.376671 286.027985,99.110252 
	C280.523132,99.110252 275.402222,99.186928 270.288574,99.028725 
	C269.509033,99.004601 268.763123,97.892921 267.995728,96.801575 
z"/>
<path fill="#0A4BAC" opacity="1.000000" stroke="none" 
	d="
M131.477402,75.286026 
	C133.275543,75.954819 135.432663,76.368729 136.027267,77.561523 
	C139.430786,84.389267 142.462967,91.402122 145.621201,98.352135 
	C145.302948,98.805824 144.984680,99.259521 144.666412,99.713219 
	C142.968460,98.646484 140.876099,97.907883 139.657074,96.442688 
	C137.331741,93.647766 128.737610,93.441307 126.412582,96.183884 
	C125.098373,97.734100 123.084656,98.691299 121.386017,99.915611 
	C120.936958,99.451820 120.487907,98.988037 120.038849,98.524246 
	C123.730804,90.813118 127.422752,83.101990 131.477402,75.286026 
M132.085999,83.643394 
	C131.301071,85.527122 130.516144,87.410851 129.665848,89.451431 
	C132.184540,89.451431 134.028030,89.451431 136.938370,89.451431 
	C135.158096,86.832268 133.876328,84.946518 132.085999,83.643394 
z"/>
<path fill="#1652AF" opacity="1.000000" stroke="none" 
	d="
M226.889130,93.692368 
	C227.555527,88.614052 228.181702,83.876686 228.264450,79.129852 
	C228.320129,75.935402 228.998917,74.285202 232.956421,75.578293 
	C232.956421,80.838211 233.333969,86.307205 232.849045,91.698616 
	C232.374619,96.973328 228.068954,100.088326 222.704056,99.946503 
	C217.338715,99.804657 213.398849,96.487923 213.040131,91.129341 
	C212.698059,86.019722 212.966415,80.869240 212.966415,75.780449 
	C217.611832,75.045372 217.635712,75.045036 217.692825,79.128227 
	C217.734711,82.121910 217.641785,85.118179 217.717560,88.110550 
	C217.883972,94.682304 220.173798,96.183464 226.889130,93.692368 
z"/>
<path fill="#0E4DAD" opacity="1.000000" stroke="none" 
	d="
M155.063324,75.166153 
	C158.034531,75.166214 160.536911,75.329430 163.009171,75.126137 
	C166.304581,74.855148 167.780350,75.920143 166.641296,79.664291 
	C164.400101,79.858315 161.985046,80.067383 159.218994,80.306847 
	C159.218994,86.545601 159.218994,92.625565 159.218994,98.900589 
	C157.579666,98.900589 156.308670,98.900589 154.580643,98.900589 
	C154.580643,92.700867 154.580643,86.639069 154.580643,80.244781 
	C152.051559,80.088242 149.950455,79.958199 147.363907,79.798103 
	C147.218552,78.518471 147.063705,77.155083 146.837799,75.166138 
	C149.692978,75.166138 152.137024,75.166138 155.063324,75.166153 
z"/>
<path fill="#0C4BAC" opacity="1.000000" stroke="none" 
	d="
M103.272911,79.429703 
	C103.272743,84.498337 103.272743,89.118515 103.272743,94.260910 
	C107.557556,94.260910 111.474312,94.260910 115.643150,94.260910 
	C115.777100,96.013626 115.872704,97.264694 115.991570,98.819992 
	C110.204796,98.819992 104.628784,98.819992 98.807236,98.819992 
	C98.807236,91.011642 98.807236,83.272835 98.807236,75.600571 
	C102.303047,74.391403 103.725189,75.532204 103.272911,79.429703 
z"/>
<path fill="#1754B0" opacity="1.000000" stroke="none" 
	d="
M203.513046,75.150574 
	C204.783310,76.399452 205.604782,77.639961 206.929062,79.639771 
	C203.285065,79.891960 201.025223,80.048355 198.296722,80.237183 
	C198.296722,86.381851 198.296722,92.461670 198.296722,98.826752 
	C196.453506,98.826752 195.087784,98.826752 193.225586,98.826752 
	C193.225586,92.564713 193.225586,86.488487 193.225586,80.121613 
	C190.634766,80.121613 188.519867,80.121613 186.105942,80.121613 
	C186.105942,78.411133 186.105942,77.005112 186.105942,75.142204 
	C191.858856,75.142204 197.461563,75.142204 203.513046,75.150574 
z"/>
<path fill="#1752AF" opacity="1.000000" stroke="none" 
	d="
M173.964508,93.864319 
	C173.964508,87.591843 173.964508,81.803925 173.964508,75.570503 
	C175.484467,75.401680 176.854385,75.249527 178.593689,75.056343 
	C178.593689,83.117897 178.593689,90.810577 178.593689,98.813370 
	C177.196747,98.813370 175.824417,98.813370 174.176392,98.813370 
	C174.102310,97.252548 174.033417,95.800713 173.964508,93.864319 
z"/>
<path fill="#104FAE" opacity="1.000000" stroke="none" 
	d="
M59.473415,69.671257 
	C55.112408,70.112099 52.774548,68.131218 53.838882,64.326233 
	C54.269665,62.786167 57.273125,61.598419 59.317265,61.073456 
	C60.046173,60.886261 62.334370,63.196491 62.259834,64.249931 
	C62.131687,66.061089 60.708069,67.780579 59.473415,69.671257 
z"/>
<path fill="#0D4EAD" opacity="1.000000" stroke="none" 
	d="
M75.925690,83.051727 
	C73.588364,83.239540 71.242760,83.705063 69.487442,82.893646 
	C68.583549,82.475822 67.901215,79.039200 68.582062,78.281433 
	C69.850006,76.870209 72.477722,75.361595 74.021988,75.784248 
	C77.560295,76.752655 78.087761,79.636223 75.925690,83.051727 
z"/>
<path fill="#0F4EAD" opacity="1.000000" stroke="none" 
	d="
M69.163170,62.407951 
	C71.800667,60.136944 74.494858,59.776249 76.102684,62.602772 
	C76.929214,64.055786 76.757408,66.922974 75.799904,68.275505 
	C75.040260,69.348541 72.072884,69.858055 70.661972,69.259521 
	C67.851486,68.067245 67.160545,65.517044 69.163170,62.407951 
z"/>
<path fill="#0C4CAD" opacity="1.000000" stroke="none" 
	d="
M48.011887,65.116776 
	C47.366882,68.761391 45.425220,70.764046 42.140060,69.542763 
	C40.708649,69.010628 39.093945,66.699791 39.104374,65.207542 
	C39.114563,63.750183 40.814308,61.533852 42.259727,61.019016 
	C45.199127,59.972038 47.294613,61.594547 48.011887,65.116776 
z"/>
<path fill="#0E4EAD" opacity="1.000000" stroke="none" 
	d="
M68.193283,95.654480 
	C69.234879,93.540253 70.073013,91.306114 71.682846,90.263557 
	C72.533432,89.712692 75.788414,90.914299 76.087044,91.894608 
	C76.644859,93.725739 76.606812,96.800972 75.444504,97.878838 
	C72.783279,100.346710 70.026398,99.282089 68.193283,95.654480 
z"/>
<path fill="#F8F9FC" opacity="1.000000" stroke="none" 
	d="
M245.065369,85.131546 
	C245.137863,83.193550 245.210358,81.731018 245.365784,78.595245 
	C249.583160,80.394081 253.491089,81.283661 256.223022,83.575226 
	C257.468506,84.619957 257.255829,88.893906 256.188660,90.894608 
	C253.965988,95.061584 249.562500,94.475845 245.065353,94.132919 
	C245.065353,91.205994 245.065353,88.406502 245.065369,85.131546 
z"/>
<path fill="#D9E2F1" opacity="1.000000" stroke="none" 
	d="
M132.340271,83.352081 
	C133.876328,84.946518 135.158096,86.832268 136.938370,89.451431 
	C134.028030,89.451431 132.184540,89.451431 129.665848,89.451431 
	C130.516144,87.410851 131.301071,85.527122 132.340271,83.352081 
z"/>
</svg>